<mxfile host="app.diagrams.net" modified="2022-11-10T23:22:00.704Z" agent="5.0 (Macintosh; Intel Mac OS X 10_15_7) AppleWebKit/537.36 (KHTML, like Gecko) Chrome/107.0.0.0 Safari/537.36" etag="G-0IeA6ROhPyoEjOKM4r" version="20.5.1" type="github">
  <diagram id="3228e29e-7158-1315-38df-8450db1d8a1d" name="Page-1">
    <mxGraphModel dx="691" dy="170" grid="0" gridSize="10" guides="1" tooltips="1" connect="1" arrows="1" fold="1" page="1" pageScale="1" pageWidth="600" pageHeight="270" background="#EFF1F3" math="0" shadow="0">
      <root>
        <mxCell id="0" />
        <mxCell id="1" parent="0" />
        <mxCell id="aydmDljlnUivqk2VUL0J-3" value="&lt;font color=&quot;#4a919b&quot; style=&quot;font-size: 12px;&quot;&gt;传输数据包&lt;/font&gt;" style="text;html=1;strokeColor=none;fillColor=none;align=center;verticalAlign=middle;whiteSpace=wrap;rounded=0;" parent="1" vertex="1">
          <mxGeometry x="253" y="672" width="76" height="30" as="geometry" />
        </mxCell>
        <mxCell id="elx-VDDj_Fb_tuFXCiSr-3" value="" style="shape=image;verticalLabelPosition=bottom;labelBackgroundColor=default;verticalAlign=top;aspect=fixed;imageAspect=0;image=data:image/svg+xml,PHN2ZyB4bWxuczp4bGluaz0iaHR0cDovL3d3dy53My5vcmcvMTk5OS94bGluayIgeG1sbnM9Imh0dHA6Ly93d3cudzMub3JnLzIwMDAvc3ZnIiBoZWlnaHQ9IjIwMCIgd2lkdGg9IjIwMCIgdmVyc2lvbj0iMS4xIiB2aWV3Qm94PSIwIDAgMTAyNCAxMDI0IiBjbGFzcz0iaWNvbiI+PHBhdGggZmlsbD0iI0VEOEYyNyIgZD0iTTMwNC42NSAyMzkuNDQ0YzAgMTQuNTA4IDExLjc2MSAyNi4yNjggMjYuMjY4IDI2LjI2OGgyNS4xNjgtMjUuMTY4Yy0xNC41MDggMC0yNi4yNjggMTEuNzYyLTI2LjI2OCAyNi4yNjl2MjUuMTY4LTI1LjE2OGMwLTE0LjUwOC0xMS43NjItMjYuMjY5LTI2LjI2OS0yNi4yNjloLTI1LjE2OCAyNS4xNjhjMTQuNTA3IDAgMjYuMjY5LTExLjc2IDI2LjI2OS0yNi4yNjh2LTI1LjE2OCAyNS4xNjh6Ii8+PHBhdGggZmlsbD0iI0VEOEYyNyIgZD0iTTMxNy45ODMgMzE3LjE0OWgtMjYuNjYydi0yNS4xN2MwLTcuMTM0LTUuODA2LTEyLjkzMS0xMi45NDEtMTIuOTMxaC0yNS4xNjl2LTI2LjY2MmgyNS4xNjljNy4xMzUgMCAxMi45NDEtNS44MDcgMTIuOTQxLTEyLjk0MXYtMjUuMTY5aDI2LjY2MnYyNS4xNjljMCA3LjEzNCA1Ljc5NyAxMi45NDEgMTIuOTMyIDEyLjk0MXYyNi42NjJjLTcuMTM1IDAtMTIuOTMyIDUuNzk3LTEyLjkzMiAxMi45MzF2MjUuMTd6IG0zOC4xMDEtMzguMTAxaC0yNS4xNjl2LTI2LjY2MmgyNS4xNjl2MjYuNjYyeiIvPjxwYXRoIGZpbGw9IiNFRDhGMjciIGQ9Ik03MTAuOTI3IDE3Ny42MjljMCAxMi4wNzcgOS43OSAyMS44NjYgMjEuODY2IDIxLjg2NmgyMC45NTEtMjAuOTUxYy0xMi4wNzcgMC0yMS44NjYgOS43OTEtMjEuODY2IDIxLjg2N3YyMC45NS0yMC45NWMwLTEyLjA3Ny05Ljc5MS0yMS44NjctMjEuODY3LTIxLjg2N2gtMjAuOTUgMjAuOTVjMTIuMDc3IDAgMjEuODY3LTkuNzg5IDIxLjg2Ny0yMS44NjZ2LTIwLjk1IDIwLjk1eiIvPjxwYXRoIGZpbGw9IiNFRDhGMjciIGQ9Ik03MjIuMDI2IDI0Mi4zMTJoLTIyLjE5NFYyMjEuMzZjMC01LjkzOC00LjgzMy0xMC43NjQtMTAuNzcyLTEwLjc2NGgtMjAuOTUxdi0yMi4xOTRoMjAuOTUxYzUuOTM5IDAgMTAuNzcyLTQuODM0IDEwLjc3Mi0xMC43NzJ2LTIwLjk1MWgyMi4xOTR2MjAuOTUxYzAgNS45MzggNC44MjYgMTAuNzcyIDEwLjc2NSAxMC43NzJ2MjIuMTk0Yy01LjkzOSAwLTEwLjc2NSA0LjgyNi0xMC43NjUgMTAuNzY0djIwLjk1MnogbTMxLjcxNi0zMS43MTZoLTIwLjk1MXYtMjIuMTk0aDIwLjk1MXYyMi4xOTR6Ii8+PHBhdGggZmlsbD0iI0VEOEYyNyIgZD0iTTgxNy4yMjggMjc5LjcyNWMwIDguMjQ3IDYuNjg2IDE0LjkzMiAxNC45MzIgMTQuOTMyaDE0LjMwNi0xNC4zMDZjLTguMjQ3IDAtMTQuOTMyIDYuNjg1LTE0LjkzMiAxNC45MzJ2MTQuMzA3LTE0LjMwN2MwLTguMjQ3LTYuNjg1LTE0LjkzMi0xNC45MzItMTQuOTMySDc4Ny45OWgxNC4zMDZjOC4yNDYgMCAxNC45MzItNi42ODUgMTQuOTMyLTE0LjkzMnYtMTQuMzA2IDE0LjMwNnoiLz48cGF0aCBmaWxsPSIjRUQ4RjI3IiBkPSJNODI0LjgwNSAzMjMuODk4SDgwOS42NVYzMDkuNTljMC00LjA1NS0zLjMtNy4zNTYtNy4zNTYtNy4zNTZoLTE0LjMwN3YtMTUuMTU2aDE0LjMwN2M0LjA1NSAwIDcuMzU2LTMuMyA3LjM1Ni03LjM1NnYtMTQuMzA3aDE1LjE1NnYxNC4zMDdjMCA0LjA1NiAzLjMgNy4zNTYgNy4zNTYgNy4zNTZ2MTUuMTU2Yy00LjA1NiAwLTcuMzU2IDMuMy03LjM1NiA3LjM1NnYxNC4zMDh6IG0yMS42NjMtMjEuNjYzaC0xNC4zMDd2LTE1LjE1NmgxNC4zMDd2MTUuMTU2eiIvPjxwYXRoIGZpbGw9IiNFRDhGMjciIGQ9Ik03MzUuODE0IDU1Mi4zMThWNDQ2Ljg0N0gzMDguMzE1djQ2LjQ3OWgxMS43NDd2NTguOTkySDE1My41MDN2MjcyLjIwOGg3NDguNDI2VjU1Mi4zMTh6Ii8+PHBhdGggZmlsbD0iIzIyOEU5RCIgZD0iTTE5Mi4wMzcgNTk2LjA4M2gzMy42Mjl2NDRoLTMzLjYyOXpNMjU3LjA3MyA1OTYuMDgzaDMzLjYyOXY0NGgtMzMuNjI5ek0yNTcuMDczIDY3MC4xMDRoMzMuNjI5djQ0aC0zMy42Mjl6TTE5Mi4wMzcgNjcwLjEwNGgzMy42Mjl2NDRoLTMzLjYyOXpNNzYwLjUwNSA1OTYuMDgzaDMzLjYyOXY0NGgtMzMuNjI5ek04MjUuNTQxIDU5Ni4wODNoMzMuNjI5djQ0aC0zMy42Mjl6TTgyNS41NDEgNjcwLjEwNGgzMy42Mjl2NDRoLTMzLjYyOXoiLz48cGF0aCBmaWxsPSIjRkNFM0MzIiBkPSJNMzI0Ljk4MiA0OTMuMzI2aDQxMC44MzJ2MjYyLjk2M0gzMjQuOTgyeiIvPjxwYXRoIGZpbGw9IiMyMjhFOUQiIGQ9Ik03NjAuNTA1IDY3MC4xMDRoMzMuNjI5djQ0aC0zMy42Mjl6TTQ4Mi4yIDc0Ni45NjNWNjE5LjYyNHMyOS42OS01Ni45MjcgNDcuOTgtMzguNjM4YzE4LjI4OSAxOC4yODkgNDUuOTMyIDQyLjEyOSA0NS45MzIgNDIuMTI5TDU3MSA3NDQuNzVsLTg4LjggMi4yMTN6Ii8+PHBhdGggZmlsbD0iI0IxMjgwMCIgZD0iTTMwOC4zMTUgNDQ2Ljg0N2wyMTcuNDY0LTEyMC4zMzZMNzM0LjIyIDQ2MC44MDh6Ii8+PHBhdGggZmlsbD0iI0ZDRTNDMyIgZD0iTTQ0MSA1MjYuOTIzVjQ5MC43N2gtODUuMTI5djM2LjE1M2gxNS44ODZWNzExLjYzaC0xOC41MjJ2MzguMzMzaDg0LjIzNlY3MTEuNjNoLTEyLjUzVjUyNi45MjN6TTY5OC41NDUgNTI2LjkyM1Y0OTAuNzdoLTg1LjEyOXYzNi4xNTNoMTUuODg2VjcxMS42M0g2MTAuNzh2MzguMzMzaDg0LjIzNVY3MTEuNjNoLTEyLjUyOVY1MjYuOTIzeiIvPjxwYXRoIGZpbGw9IiNGQ0UzQzMiIGQ9Ik0zMDguMzE1IDQ0Ni44NDdoNDQzLjk3MnY0OC4wOTZIMzA4LjMxNXpNNzQ3LjY4NyA3ODUuNDM2di0yOS4xNDdIMzAxLjc5NnYyOS4xNDdoLTExLjA5NHYzOS4wOWg0NzIuODN2LTM5LjA5eiIvPjxwYXRoIGZpbGw9IiNFRDhGMjciIGQ9Ik01MjguMDU2IDM5Ni42MjdtLTIzLjI1NyAwYTIzLjI1NyAyMy4yNTcgMCAxIDAgNDYuNTE0IDAgMjMuMjU3IDIzLjI1NyAwIDEgMC00Ni41MTQgMFoiLz48cGF0aCBmaWxsPSIjMzAwNjA0IiBkPSJNNTgwLjMxNSA3NDQuNjE4aC0xOC4wNjdWNjMxLjYyMmMwLTIwLjA0My0xNi4zMDktMzYuMzUyLTM2LjM1Mi0zNi4zNTItMjAuMDQzIDAtMzYuMzQ1IDE2LjMwOS0zNi4zNDUgMzYuMzUydjExMi45OTZoLTE4LjA2N1Y2MzEuNjIyYzAtMzAuMDA2IDI0LjQwNy01NC40MTkgNTQuNDEyLTU0LjQxOSAzMC4wMDYgMCA1NC40MTkgMjQuNDEzIDU0LjQxOSA1NC40MTl2MTEyLjk5NnpNMzE1Ljk0OSA0OTMuMzI2aDE4LjA2N3YyNTkuNTc4aC0xOC4wNjd6TTcxNy43NDcgNDkzLjMyNmgxOC4wNjd2MjU5LjU3OGgtMTguMDY3ek00MzguMTI1IDU0MC42ODFoLTgyLjI2MWMtNC45ODcgMC05LjAzNC00LjA0Ni05LjAzNC05LjAzNHYtMzYuNzA0YzAtNC45ODcgNC4wNDYtOS4wMzQgOS4wMzQtOS4wMzRoODIuMjYxYzQuOTg3IDAgOS4wMzQgNC4wNDYgOS4wMzQgOS4wMzR2MzYuNzA0Yy0wLjAwMSA0Ljk4OC00LjA0NyA5LjAzNC05LjAzNCA5LjAzNHogbS03My4yMjctMTguMDY3aDY0LjE5M3YtMTguNjM3aC02NC4xOTN2MTguNjM3eiIvPjxwYXRoIGZpbGw9IiMzMDA2MDQiIGQ9Ik00MjIuODkzIDcyNS4yMjFoLTUxLjY0OWE5LjAyMyA5LjAyMyAwIDAgMS02LjQ2OS0yLjcyOSA5LjAzNSA5LjAzNSAwIDAgMS0yLjU1OC02LjU0bDQuODQ2LTE4NC41NDFhOS4wMjUgOS4wMjUgMCAwIDEgOS4wMjctOC43OTloNDEuOTUxYTkuMDI1IDkuMDI1IDAgMCAxIDkuMDI4IDguNzk5bDQuODUyIDE4NC41NDFhOS4wMzMgOS4wMzMgMCAwIDEtOS4wMjggOS4yNjl6IG0tNDIuMzc0LTE4LjA2N2gzMy4wOTlsLTQuMzc2LTE2Ni40NzRoLTI0LjM1NGwtNC4zNjkgMTY2LjQ3NHoiLz48cGF0aCBmaWxsPSIjMzAwNjA0IiBkPSJNNDM4LjE4NCA3NjEuOTM4aC04Mi4yNTVhOS4wMzYgOS4wMzYgMCAwIDEtOS4wMzQtOS4wMzR2LTM2LjcxNmMwLTQuOTg3IDQuMDQ2LTkuMDM0IDkuMDM0LTkuMDM0aDgyLjI1NWM0Ljk4NyAwIDkuMDM0IDQuMDQ2IDkuMDM0IDkuMDM0djM2LjcxNmMtMC4wMDEgNC45ODctNC4wNDcgOS4wMzQtOS4wMzQgOS4wMzR6IG0tNzMuMjIxLTE4LjA2N2g2NC4xODd2LTE4LjY0OWgtNjQuMTg3djE4LjY0OXpNNjgwLjQ4OSA3MjUuMjIxaC01MS42NmE5LjAzMSA5LjAzMSAwIDAgMS05LjAyNy05LjI2OWw0Ljg1OC0xODQuNTQxYTkuMDI2IDkuMDI2IDAgMCAxIDkuMDI4LTguNzk5aDQxLjk1MWE5LjAyNCA5LjAyNCAwIDAgMSA5LjAyNyA4Ljc5OWw0Ljg1MiAxODQuNTQxYTkuMDMxIDkuMDMxIDAgMCAxLTkuMDI5IDkuMjY5eiBtLTQyLjM4NS0xOC4wNjdoMzMuMTExbC00LjM3Ni0xNjYuNDc0aC0yNC4zNTRsLTQuMzgxIDE2Ni40NzR6Ii8+PHBhdGggZmlsbD0iIzMwMDYwNCIgZD0iTTY5NS43MjEgNTQwLjY4MWgtODIuMjU1Yy00Ljk4NyAwLTkuMDM0LTQuMDQ2LTkuMDM0LTkuMDM0di0zNi43MDRjMC00Ljk4NyA0LjA0Ny05LjAzNCA5LjAzNC05LjAzNGg4Mi4yNTVhOS4wMzYgOS4wMzYgMCAwIDEgOS4wMzQgOS4wMzR2MzYuNzA0YTkuMDM2IDkuMDM2IDAgMCAxLTkuMDM0IDkuMDM0ek02MjIuNSA1MjIuNjE0aDY0LjE4OHYtMTguNjM3SDYyMi41djE4LjYzN3pNNjk1Ljc4NyA3NjEuOTM4aC04Mi4yNDlhOS4wMzYgOS4wMzYgMCAwIDEtOS4wMzQtOS4wMzR2LTM2LjcxNmMwLTQuOTg3IDQuMDQ2LTkuMDM0IDkuMDM0LTkuMDM0aDgyLjI0OWM0Ljk4NyAwIDkuMDM0IDQuMDQ2IDkuMDM0IDkuMDM0djM2LjcxNmMtMC4wMDEgNC45ODctNC4wNDcgOS4wMzQtOS4wMzQgOS4wMzR6IG0tNzMuMjE1LTE4LjA2N2g2NC4xODF2LTE4LjY0OWgtNjQuMTgxdjE4LjY0OXoiLz48cGF0aCBmaWxsPSIjMzAwNjA0IiBkPSJNNzQzLjI1NCA1MDMuOTc2SDMwOC4zMDljLTQuOTg3IDAtOS4wMzQtNC4wNDYtOS4wMzQtOS4wMzRWNDU1Ljg4YTkuMDM1IDkuMDM1IDAgMCAxIDQuMTQtNy41OTNsMjE3LjQ3LTE0MC4xMTRhOS4wNDUgOS4wNDUgMCAwIDEgOS43ODYgMGwyMTcuNDc1IDE0MC4xMTRhOS4wMzMgOS4wMzMgMCAwIDEgNC4xNCA3LjU5M3YzOS4wNjNjMC4wMDEgNC45ODctNC4wNDUgOS4wMzMtOS4wMzIgOS4wMzN6IG0tNDI1LjkxMi0xOC4wNjdINzM0LjIydi0yNS4xMDFMNTI1Ljc3OSAzMjYuNTExIDMxNy4zNDIgNDYwLjgwOHYyNS4xMDF6Ii8+PHBhdGggZmlsbD0iIzMwMDYwNCIgZD0iTTUyNS44MjYgNDI2LjkzOGMtMTcuMDQ5IDAtMzAuOTI0LTEzLjg3NC0zMC45MjQtMzAuOTIzIDAtMTcuMDUgMTMuODc0LTMwLjkyNCAzMC45MjQtMzAuOTI0IDE3LjA1NSAwIDMwLjkzNSAxMy44NzQgMzAuOTM1IDMwLjkyNC0wLjAwMSAxNy4wNS0xMy44OCAzMC45MjMtMzAuOTM1IDMwLjkyM3ogbTAtNDMuNzc5Yy03LjA4NyAwLTEyLjg1NyA1Ljc2OS0xMi44NTcgMTIuODU3IDAgNy4wODcgNS43NjkgMTIuODU2IDEyLjg1NyAxMi44NTYgNy4wOTMgMCAxMi44NjgtNS43NjkgMTIuODY4LTEyLjg1Ni0wLjAwMS03LjA4OC01Ljc3Ni0xMi44NTctMTIuODY4LTEyLjg1N3pNMzA4LjMxNSA0NDYuODQ3aDQzNC45Mzl2MTguMDY3SDMwOC4zMTV6TTEzNS4yNDMgNTM5LjI4N2gxODkuNzR2MTguMDY3aC0xODkuNzR6TTcyNi43ODEgNTM5LjI4N2gxODkuNzM0djE4LjA2N0g3MjYuNzgxek04NTcuNTE0IDY0Ni4xNDNoLTMwLjc3N2MtNC45ODcgMC05LjAzNC00LjA0Ni05LjAzNC05LjAzNFY1OTguNDRhOS4wMzYgOS4wMzYgMCAwIDEgOS4wMzQtOS4wMzRoMzAuNzc3YzQuOTg3IDAgOS4wMzQgNC4wNDYgOS4wMzQgOS4wMzR2MzguNjY5Yy0wLjAwMSA0Ljk4OC00LjA0NyA5LjAzNC05LjAzNCA5LjAzNHogbS0yMS43NDMtMTguMDY3aDEyLjcxdi0yMC42MDJoLTEyLjcxdjIwLjYwMnpNODU3LjUxNCA3MjAuNDdoLTMwLjc3N2MtNC45ODcgMC05LjAzNC00LjA0Ni05LjAzNC05LjAzNHYtMzguNjY0YzAtNC45ODcgNC4wNDYtOS4wMzQgOS4wMzQtOS4wMzRoMzAuNzc3YzQuOTg3IDAgOS4wMzQgNC4wNDYgOS4wMzQgOS4wMzR2MzguNjY0Yy0wLjAwMSA0Ljk4Ny00LjA0NyA5LjAzNC05LjAzNCA5LjAzNHogbS0yMS43NDMtMTguMDY3aDEyLjcxdi0yMC41OTZoLTEyLjcxdjIwLjU5NnpNNzkxLjIwOSA2NDYuMTQzaC0zMC43NzFjLTQuOTg3IDAtOS4wMzQtNC4wNDYtOS4wMzQtOS4wMzRWNTk4LjQ0YTkuMDM2IDkuMDM2IDAgMCAxIDkuMDM0LTkuMDM0aDMwLjc3MWM0Ljk4NyAwIDkuMDM0IDQuMDQ2IDkuMDM0IDkuMDM0djM4LjY2OWMtMC4wMDEgNC45ODgtNC4wNDcgOS4wMzQtOS4wMzQgOS4wMzR6IG0tMjEuNzM3LTE4LjA2N2gxMi43MDR2LTIwLjYwMmgtMTIuNzA0djIwLjYwMnpNNzkxLjIwOSA3MjAuNDdoLTMwLjc3MWMtNC45ODcgMC05LjAzNC00LjA0Ni05LjAzNC05LjAzNHYtMzguNjY0YzAtNC45ODcgNC4wNDYtOS4wMzQgOS4wMzQtOS4wMzRoMzAuNzcxYzQuOTg3IDAgOS4wMzQgNC4wNDYgOS4wMzQgOS4wMzR2MzguNjY0Yy0wLjAwMSA0Ljk4Ny00LjA0NyA5LjAzNC05LjAzNCA5LjAzNHogbS0yMS43MzctMTguMDY3aDEyLjcwNHYtMjAuNTk2aC0xMi43MDR2MjAuNTk2ek0yOTAuNDYgNjQ2LjE0M2gtMzAuNzgzYy00Ljk4NyAwLTkuMDM0LTQuMDQ2LTkuMDM0LTkuMDM0VjU5OC40NGE5LjAzNiA5LjAzNiAwIDAgMSA5LjAzNC05LjAzNGgzMC43ODNjNC45ODcgMCA5LjAzNCA0LjA0NiA5LjAzNCA5LjAzNHYzOC42NjljLTAuMDAxIDQuOTg4LTQuMDQ3IDkuMDM0LTkuMDM0IDkuMDM0eiBtLTIxLjc0OS0xOC4wNjdoMTIuNzE2di0yMC42MDJoLTEyLjcxNnYyMC42MDJ6TTI5MC40NiA3MjAuNDdoLTMwLjc4M2MtNC45ODcgMC05LjAzNC00LjA0Ni05LjAzNC05LjAzNHYtMzguNjY0YzAtNC45ODcgNC4wNDYtOS4wMzQgOS4wMzQtOS4wMzRoMzAuNzgzYzQuOTg3IDAgOS4wMzQgNC4wNDYgOS4wMzQgOS4wMzR2MzguNjY0Yy0wLjAwMSA0Ljk4Ny00LjA0NyA5LjAzNC05LjAzNCA5LjAzNHogbS0yMS43NDktMTguMDY3aDEyLjcxNnYtMjAuNTk2aC0xMi43MTZ2MjAuNTk2ek0yMjQuMTU1IDY0Ni4xNDNoLTMwLjc3MWMtNC45ODcgMC05LjAzNC00LjA0Ni05LjAzNC05LjAzNFY1OTguNDRhOS4wMzYgOS4wMzYgMCAwIDEgOS4wMzQtOS4wMzRoMzAuNzcxYzQuOTg3IDAgOS4wMzQgNC4wNDYgOS4wMzQgOS4wMzR2MzguNjY5Yy0wLjAwMSA0Ljk4OC00LjA0NyA5LjAzNC05LjAzNCA5LjAzNHogbS0yMS43MzctMTguMDY3aDEyLjcwNHYtMjAuNjAyaC0xMi43MDR2MjAuNjAyek0yMjQuMTU1IDcyMC40N2gtMzAuNzcxYy00Ljk4NyAwLTkuMDM0LTQuMDQ2LTkuMDM0LTkuMDM0di0zOC42NjRjMC00Ljk4NyA0LjA0Ni05LjAzNCA5LjAzNC05LjAzNGgzMC43NzFjNC45ODcgMCA5LjAzNCA0LjA0NiA5LjAzNCA5LjAzNHYzOC42NjRjLTAuMDAxIDQuOTg3LTQuMDQ3IDkuMDM0LTkuMDM0IDkuMDM0eiBtLTIxLjczNy0xOC4wNjdoMTIuNzA0di0yMC41OTZoLTEyLjcwNHYyMC41OTZ6TTc0My40NDIgNzk3Ljc0OUgzMDguMTc0Yy00Ljk4NyAwLTkuMDM0LTQuMDQ2LTkuMDM0LTkuMDM0di0zNS44MTFjMC00Ljk4NyA0LjA0Ni05LjAzNCA5LjAzNC05LjAzNGg0MzUuMjY4YzQuOTg3IDAgOS4wMzQgNC4wNDYgOS4wMzQgOS4wMzR2MzUuODExYzAgNC45ODctNC4wNDcgOS4wMzQtOS4wMzQgOS4wMzR6IG0tNDI2LjIzNC0xOC4wNjdoNDE3LjIwMXYtMTcuNzQ0SDMxNy4yMDh2MTcuNzQ0eiIvPjxwYXRoIGZpbGw9IiMzMDA2MDQiIGQ9Ik03NjMuNjkxIDgzMy41NTloLTQ3NS43NmE5LjAzNiA5LjAzNiAwIDAgMS05LjAzNC05LjAzNHYtMzUuODExYzAtNC45ODcgNC4wNDYtOS4wMzQgOS4wMzQtOS4wMzRoNDc1Ljc2YzQuOTg3IDAgOS4wMzQgNC4wNDYgOS4wMzQgOS4wMzR2MzUuODExYy0wLjAwMSA0Ljk4OC00LjA0NyA5LjAzNC05LjAzNCA5LjAzNHogbS00NjYuNzI2LTE4LjA2N2g0NTcuNjkzdi0xNy43NDRIMjk2Ljk2NXYxNy43NDR6Ii8+PHBhdGggZmlsbD0iIzMwMDYwNCIgZD0iTTI4Ny43MzEgODMzLjYyNGgtMC4wMTJsLTEyOS4wNzUtMC4xODhhOS4wNTcgOS4wNTcgMCAwIDEtNi4zODctMi42NTMgOS4wNTYgOS4wNTYgMCAwIDEtMi42MzUtNi4zOTNsMC40MDYtMjc2LjIwNWE5LjA2MiA5LjA2MiAwIDAgMSAyLjY1Mi02LjM4NyA5LjAzOCA5LjAzOCAwIDAgMSA2LjM4MS0yLjYzNWgwLjAxMmwxNjYuMTIxIDAuMjQ3YzQuOTkzIDAuMDA2IDkuMDI3IDQuMDU4IDkuMDIxIDkuMDQ2bC0wLjI5NCAyMDQuNTg0Yy0wLjAwNiA0Ljk4Ny00LjA1MiA5LjAyMS05LjAzNCA5LjAyMWgtMC4wMTJsLTcuNzY5LTAuMDExLTAuMDQyIDI2Ljc3N2MtMC4wMDUgNC45ODItNC4wNTIgOS4wMTYtOS4wMzQgOS4wMTZoLTAuMDExbC0xMS4yMTUtMC4wMTctMC4wNDEgMjYuNzgzYy0wLjAwNCA0Ljk4LTQuMDUxIDkuMDE1LTkuMDMyIDkuMDE1eiBtLTEyMC4wMy0xOC4yNDRsMTExLjAxNCAwLjE2NSAwLjA0MS0yNi43ODNjMC4wMDYtNC45ODEgNC4wNTItOS4wMTYgOS4wMzQtOS4wMTZoMC4wMTJsMTEuMjE1IDAuMDE4IDAuMDQxLTI2Ljc3N2MwLjAwNi00Ljk4MiA0LjA1My05LjAxNiA5LjAzNC05LjAxNmgwLjAxMmw3Ljc2MyAwLjAxMiAwLjI3LTE4Ni41MTYtMTQ4LjA1My0wLjIyNC0wLjM4MyAyNTguMTM3ek04OTIuODk1IDgzMy41NTlINzYzLjY5MWMtNC45ODcgMC05LjAzNC00LjA0Ni05LjAzNC05LjAzNHYtMjYuNzc3aC0xMS4yMTVhOS4wMzYgOS4wMzYgMCAwIDEtOS4wMzQtOS4wMzR2LTI2Ljc3N2gtNy42MjhhOS4wMzYgOS4wMzYgMCAwIDEtOS4wMzQtOS4wMzRWNTQ4LjMyMWMwLTQuOTg3IDQuMDQ2LTkuMDM0IDkuMDM0LTkuMDM0aDE2Ni4xMTVjNC45ODcgMCA5LjAzNCA0LjA0NiA5LjAzNCA5LjAzNHYyNzYuMjA1YzAgNC45ODctNC4wNDcgOS4wMzMtOS4wMzQgOS4wMzN6IG0tMTIwLjE3MS0xOC4wNjdoMTExLjEzN1Y1NTcuMzU0SDczNS44MTR2MTg2LjUxN2g3LjYyOGM0Ljk4NyAwIDkuMDM0IDQuMDQ2IDkuMDM0IDkuMDM0djI2Ljc3N2gxMS4yMTVjNC45ODcgMCA5LjAzNCA0LjA0NiA5LjAzNCA5LjAzNHYyNi43NzZ6Ii8+PHBhdGggZmlsbD0iIzMwMDYwNCIgZD0iTTUxNS4wMzMgMjExLjQwMWgxOS43MDV2OTkuNzcyaC0xOS43MDV6Ii8+PHBhdGggZmlsbD0iI0IxMjgwMCIgZD0iTTUyNC44ODUgMjE3LjQwMmg2OS43MDF2NTQuMjc0aC02OS43MDF6Ii8+PHBhdGggZmlsbD0iIzMwMDYwNCIgZD0iTTYwMS4xODEgMjc4LjI3MWgtODIuODl2LTY3LjQ2NGg4Mi44OXY2Ny40NjR6IG0tNjkuNzAxLTEzLjE5aDU2LjUxMXYtNDEuMDg1SDUzMS40OHY0MS4wODV6Ii8+PC9zdmc+;" parent="1" vertex="1">
          <mxGeometry x="409" y="605" width="131" height="131" as="geometry" />
        </mxCell>
        <mxCell id="elx-VDDj_Fb_tuFXCiSr-5" value="" style="shape=image;verticalLabelPosition=bottom;labelBackgroundColor=default;verticalAlign=top;aspect=fixed;imageAspect=0;image=data:image/svg+xml,PHN2ZyB4bWxuczp4bGluaz0iaHR0cDovL3d3dy53My5vcmcvMTk5OS94bGluayIgeG1sbnM9Imh0dHA6Ly93d3cudzMub3JnLzIwMDAvc3ZnIiBoZWlnaHQ9IjIwMCIgd2lkdGg9IjIwMCIgdmVyc2lvbj0iMS4xIiB2aWV3Qm94PSIwIDAgMTAyNCAxMDI0IiBjbGFzcz0iaWNvbiI+PHBhdGggZmlsbD0iI0VERjRGRiIgZD0iTTgzOC40ODUzMzMgNTg5LjY1MzMzM2E2NS4xOTQ2NjcgNjUuMTk0NjY3IDAgMCAxLTY1LjE5NDY2Ni02NS4zNjUzMzMgNjQuNjgyNjY3IDY0LjY4MjY2NyAwIDAgMS0xOS4yODUzMzQgNDYuMjUwNjY3IDYzLjgyOTMzMyA2My44MjkzMzMgMCAwIDEtNDYuMDggMTkuMTE0NjY2IDY1LjE5NDY2NyA2NS4xOTQ2NjcgMCAwIDEtNjUuMzY1MzMzLTY1LjM2NTMzMyA2NS4xOTQ2NjcgNjUuMTk0NjY3IDAgMCAxLTE5LjExNDY2NyA0Ni4yNTA2NjcgNjQuMTcwNjY3IDY0LjE3MDY2NyAwIDAgMS00Ni4wOCAxOS4xMTQ2NjZBNjUuMTk0NjY3IDY1LjE5NDY2NyAwIDAgMSA1MTIgNTI0LjI4OGE2NS4xOTQ2NjcgNjUuMTk0NjY3IDAgMCAxLTE5LjExNDY2NyA0Ni4yNTA2NjcgNjQuNTEyIDY0LjUxMiAwIDAgMS00Ni4yNTA2NjYgMTkuMTE0NjY2IDY1LjE5NDY2NyA2NS4xOTQ2NjcgMCAwIDEtNjUuMTk0NjY3LTY1LjM2NTMzMyA2NS4xOTQ2NjcgNjUuMTk0NjY3IDAgMCAxLTE5LjExNDY2NyA0Ni4yNTA2NjcgNjQuNTEyIDY0LjUxMiAwIDAgMS00Ni4yNTA2NjYgMTkuMTE0NjY2IDY1LjM2NTMzMyA2NS4zNjUzMzMgMCAwIDEtNjUuMzY1MzM0LTY1LjM2NTMzM0E2NS4zNjUzMzMgNjUuMzY1MzMzIDAgMCAxIDE4Ny43MzMzMzMgNTg5LjY1MzMzM2E1OC41Mzg2NjcgNTguNTM4NjY3IDAgMCAxLTIxLjE2MjY2Ni0zLjI0MjY2NlY4OTkuNDEzMzMzaDY5MC41MTczMzNWNTg2Ljc1MmE2Ny4yNDI2NjcgNjcuMjQyNjY3IDAgMCAxLTE4LjYwMjY2NyAyLjkwMTMzM3oiLz48cGF0aCBmaWxsPSIjRDhFM0YwIiBkPSJNNTEyIDgzMy4wMjRhMzMzNC44MjY2NjcgMzMzNC44MjY2NjcgMCAwIDEtMzQ1LjA4OC0xNy4wNjY2Njd2ODMuNDU2aDY5MC4xNzZ2LTg0LjEzODY2NkEzMzM0LjgyNjY2NyAzMzM0LjgyNjY2NyAwIDAgMSA1MTIgODMzLjAyNHoiLz48cGF0aCBmaWxsPSIjRkNGRUZGIiBkPSJNMzMxLjI2NCAyNDAuMjk4NjY3aDYwLjA3NDY2N3Y4MS4wNjY2NjZoLTYwLjA3NDY2N3pNNjkyLjkwNjY2NyAzMjEuMzY1MzMzaC02MC4wNzQ2Njd2LTgxLjA2NjY2Nmg2MC4wNzQ2Njd6Ii8+PHBhdGggZmlsbD0iIzk2RERGRiIgZD0iTTI4MC4yMzQ2NjcgNjU3LjIzNzMzM0g0ODkuODEzMzMzdjEzMC4yMTg2NjdIMjgwLjIzNDY2N3oiLz48cGF0aCBmaWxsPSIjNjlCQUY5IiBkPSJNMzk1LjQzNDY2NyA2NTcuMjM3MzMzbC00MS4xMzA2NjcgMTMwLjIxODY2N0gzMDcuMmw0MS4xMzA2NjctMTMwLjIxODY2N2g0Ny4xMDR6TTUwMC41NjUzMzMgNjU3LjIzNzMzM2wtNi45OTczMzMgMTMwLjIxODY2N2gtODEuMjM3MzMzbDQxLjEzMDY2Ni0xMzAuMjE4NjY3aDQ3LjEwNHoiLz48cGF0aCBmaWxsPSIjOTZEREZGIiBkPSJNNTk5LjA0IDY1Ny4yMzczMzNoMTQ0LjcyNTMzM1Y4OTkuNDEzMzMzSDU5OS4wNHoiLz48cGF0aCBmaWxsPSIjNjlCQUY5IiBkPSJNNTk5LjA0IDg0OC44OTZ2NTEuMmgxNDQuNzI1MzMzdi01OC4xOTczMzNjLTQ3LjYxNiAzLjI0MjY2Ny05NS4yMzIgNS44MDI2NjctMTQ0LjcyNTMzMyA2Ljk5NzMzM3oiLz48cGF0aCBmaWxsPSIjRkZDNjcwIiBkPSJNMjc0LjA5MDY2NyAxMjQuNTg2NjY3aDQ3NS45ODkzMzN2MTE1LjcxMkgyNzQuMDkwNjY3eiIvPjxwYXRoIGZpbGw9IiNGRkE3NDIiIGQ9Ik03NDkuOTA5MzMzIDEyNC41ODY2Njd2MTE1LjcxMkg0OTYuNDY5MzMzbDMxLjA2MTMzNC0xMTUuNzEyaDIyMi4zNzg2NjZ6Ii8+PHBhdGggZmlsbD0iI0Q4RTNGMCIgZD0iTTkwNC41MzMzMzMgNTI0LjI4OGE2NS4zNjUzMzMgNjUuMzY1MzMzIDAgMSAxLTEzMC41NiAweiIvPjxwYXRoIGZpbGw9IiNGQ0ZFRkYiIGQ9Ik05MDMuODUwNjY3IDUyNC4yODhoLTEzMC41NmwtMzcuMzc2LTIwMi45MjI2NjdoMTExLjk1NzMzM2w1NS45Nzg2NjcgMjAyLjkyMjY2N3oiLz48cGF0aCBmaWxsPSIjRjA1MDREIiBkPSJNNzczLjI5MDY2NyA1MjQuMjg4YTY1LjM2NTMzMyA2NS4zNjUzMzMgMCAwIDEtMTMwLjczMDY2NyAweiIvPjxwYXRoIGZpbGw9IiNGNjcxNkYiIGQ9Ik03NzMuMjkwNjY3IDUyNC4yODhoLTEzMC43MzA2NjdsLTE4LjYwMjY2Ny0yMDIuOTIyNjY3aDExMS45NTczMzRsMzcuMzc2IDIwMi45MjI2Njd6Ii8+PHBhdGggZmlsbD0iI0Q4RTNGMCIgZD0iTTY0Mi41NiA1MjQuMjg4YTY1LjM2NTMzMyA2NS4zNjUzMzMgMCAxIDEtMTMwLjU2IDB6Ii8+PHBhdGggZmlsbD0iI0ZDRkVGRiIgZD0iTTY0Mi41NiA1MjQuMjg4SDUxMlYzMjEuMzY1MzMzaDExMS45NTczMzNsMTguNjAyNjY3IDIwMi45MjI2Njd6Ii8+PHBhdGggZmlsbD0iI0YwNTA0RCIgZD0iTTUxMiA1MjQuMjg4YTY1LjM2NTMzMyA2NS4zNjUzMzMgMCAxIDEtMTMwLjU2IDB6Ii8+PHBhdGggZmlsbD0iI0Y2NzE2RiIgZD0iTTUxMiAzMjEuMzY1MzMzdjIwMi45MjI2NjdoLTEzMC41NmwxOC42MDI2NjctMjAyLjkyMjY2N0g1MTJ6Ii8+PHBhdGggZmlsbD0iI0Q4RTNGMCIgZD0iTTM4MS40NCA1MjQuMjg4YTY1LjM2NTMzMyA2NS4zNjUzMzMgMCAwIDEtMTMwLjczMDY2NyAweiIvPjxwYXRoIGZpbGw9IiNGQ0ZFRkYiIGQ9Ik00MDAuMDQyNjY3IDMyMS4zNjUzMzNsLTE4LjYwMjY2NyAyMDIuOTIyNjY3aC0xMzAuNzMwNjY3bDM3LjM3Ni0yMDIuOTIyNjY3aDExMS45NTczMzR6Ii8+PHBhdGggZmlsbD0iI0YwNTA0RCIgZD0iTTI1MC43MDkzMzMgNTI0LjI4OEE2NS4zNjUzMzMgNjUuMzY1MzMzIDAgMCAxIDE4Ny43MzMzMzMgNTg5LjY1MzMzM2E2OC4yNjY2NjcgNjguMjY2NjY3IDAgMCAxLTY4LjI2NjY2Ni02NS4zNjUzMzN6Ii8+PHBhdGggZmlsbD0iI0Y2NzE2RiIgZD0iTTI4OC4wODUzMzMgMzIxLjM2NTMzM2wtMzcuMzc2IDIwMi45MjI2NjdIMTIwLjMyYTE4LjYwMjY2NyAxOC42MDI2NjcgMCAwIDEgMC0zLjA3Mmw1NS45Nzg2NjctMTk5Ljg1MDY2N3oiLz48cGF0aCBmaWxsPSIjM0QzRDYzIiBkPSJNNTA2Ljg4IDc3MS4wNzJ2LTExMy44MzQ2NjdhMTcuMDY2NjY3IDE3LjA2NjY2NyAwIDAgMC0xNy4wNjY2NjctMTcuMDY2NjY2SDI4MC4yMzQ2NjdhMTcuMDY2NjY3IDE3LjA2NjY2NyAwIDAgMC0xNy4wNjY2NjcgMTcuMDY2NjY2djExMy44MzQ2NjdhMTcuMDY2NjY3IDE3LjA2NjY2NyAwIDAgMC0xMy44MjQgMTcuMDY2NjY3IDE3LjA2NjY2NyAxNy4wNjY2NjcgMCAwIDAgMTcuMDY2NjY3IDE3LjA2NjY2NmgyMzcuMzk3MzMzYTE3LjA2NjY2NyAxNy4wNjY2NjcgMCAwIDAgMTcuMDY2NjY3LTE3LjA2NjY2NiAxNy4wNjY2NjcgMTcuMDY2NjY3IDAgMCAwLTEzLjk5NDY2Ny0xNy4wNjY2Njd6IG0tMTM4LjkyMjY2NyAwaC03MC42NTZ2LTk2Ljc2OGg3MC42NTZ6IG0xMDQuNzg5MzM0IDBoLTcwLjY1NnYtOTYuNzY4aDcwLjY1NnpNNjU3LjQwOCA3ODcuNDU2YTIwLjk5MiAyMC45OTIgMCAxIDAtMjAuOTkyLTIwLjk5MiAyMC45OTIgMjAuOTkyIDAgMCAwIDIwLjk5MiAyMC45OTJ6Ii8+PHBhdGggZmlsbD0iIzNEM0Q2MyIgZD0iTTkyMS42IDg4Mi4zNDY2NjdoLTQ3LjQ0NTMzM1Y1OTguMzU3MzMzQTgxLjQwOCA4MS40MDggMCAwIDAgOTIxLjYgNTI0LjI4OGExOC42MDI2NjcgMTguNjAyNjY3IDAgMCAwIDAtNC40MzczMzNsLTU1Ljk3ODY2Ny0yMDMuMDkzMzM0YTE3LjA2NjY2NyAxNy4wNjY2NjcgMCAwIDAtMTcuMDY2NjY2LTEyLjQ1ODY2NmgtMTM4Ljc1MnYtNDYuOTMzMzM0aDQwLjEwNjY2NmExNy4wNjY2NjcgMTcuMDY2NjY3IDAgMCAwIDE3LjA2NjY2Ny0xNy4wNjY2NjZWMTI0LjU4NjY2N2ExNy4wNjY2NjcgMTcuMDY2NjY3IDAgMCAwLTE3LjA2NjY2Ny0xNy4wNjY2NjdIMjc0LjA5MDY2N2ExNy4wNjY2NjcgMTcuMDY2NjY3IDAgMCAwLTE3LjA2NjY2NyAxNy4wNjY2Njd2MTE1LjcxMmExNy4wNjY2NjcgMTcuMDY2NjY3IDAgMCAwIDE3LjA2NjY2NyAxNy4wNjY2NjZoNDAuMTA2NjY2djQ2LjkzMzMzNGgtMTM4LjA2OTMzM2ExNy4wNjY2NjcgMTcuMDY2NjY3IDAgMCAwLTE3LjA2NjY2NyAxMi40NTg2NjZMMTAzLjc2NTMzMyA1MTYuNzc4NjY3YTE4LjYwMjY2NyAxOC42MDI2NjcgMCAwIDAgMCA0LjQzNzMzMyA4Ny4wNCA4Ny4wNCAwIDAgMCAyNi43OTQ2NjcgNjIuNjM0NjY3IDc5LjAxODY2NyA3OS4wMTg2NjcgMCAwIDAgMTkuMjg1MzMzIDEzLjQ4MjY2NnYyODUuMDEzMzM0SDEwMi40YTE3LjA2NjY2NyAxNy4wNjY2NjcgMCAwIDAgMCAzNC4xMzMzMzNoODE5LjJhMTcuMDY2NjY3IDE3LjA2NjY2NyAwIDAgMCAwLTM0LjEzMzMzM3pNNjQ5LjcyOCAzMDAuODg1MzMzdi00MC4xMDY2NjZoMjUuOTQxMzMzdjQwLjEwNjY2NnogbS0zNTguNC0xNTkuMjMyaDQ0MS41MTQ2Njd2ODEuNTc4NjY3SDI5MS4xNTczMzN6IG04My4xMTQ2NjcgMTE5LjQ2NjY2N3Y0MC4xMDY2NjdoLTI2LjExMnYtNDAuNDQ4eiBtMzQuMTMzMzMzLTMuNDEzMzMzaDIwNy4wMTg2Njd2NDYuOTMzMzMzSDQwOC40MDUzMzN6IG0zMTguMTIyNjY3IDYyNC42NEg2MTYuMTA2NjY3VjY3NC4zMDRoMTEwLjU5MnogbTExMy4zMjI2NjYgMGgtNzkuMTg5MzMzVjY1Ny4yMzczMzNhMTcuMDY2NjY3IDE3LjA2NjY2NyAwIDAgMC0xNy4wNjY2NjctMTcuMDY2NjY2SDU5OS4wNGExNy4wNjY2NjcgMTcuMDY2NjY3IDAgMCAwLTE3LjA2NjY2NyAxNy4wNjY2NjZWODgyLjM0NjY2N0gxODMuOTc4NjY3VjYwNi4zNzg2NjdoNC43Nzg2NjZhODEuMDY2NjY3IDgxLjA2NjY2NyAwIDAgMCA1NC43ODQtMjQuMDY0IDY0Ljg1MzMzMyA2NC44NTMzMzMgMCAwIDAgNy4xNjgtOC4xOTIgODIuNDMyIDgyLjQzMiAwIDAgMCA2NS4zNjUzMzQgMzIuMjU2IDgwLjg5NiA4MC44OTYgMCAwIDAgNTguMTk3MzMzLTI0LjA2NCAxMDQuNzg5MzMzIDEwNC43ODkzMzMgMCAwIDAgNy4xNjgtOC4wMjEzMzQgODIuNDMyIDgyLjQzMiAwIDAgMCA2NS4xOTQ2NjcgMzIuMDg1MzM0IDgxLjA2NjY2NyA4MS4wNjY2NjcgMCAwIDAgNTguMTk3MzMzLTI0LjA2NCA4Mi4wOTA2NjcgODIuMDkwNjY3IDAgMCAwIDcuMTY4LTguMTkyIDgyLjQzMiA4Mi40MzIgMCAwIDAgNjUuMzY1MzMzIDMyLjI1NiA4MS4wNjY2NjcgODEuMDY2NjY3IDAgMCAwIDU4LjAyNjY2Ny0yNC4wNjQgODIuMDkwNjY3IDgyLjA5MDY2NyAwIDAgMCA3LjE2OC04LjE5MiA4Mi40MzIgODIuNDMyIDAgMCAwIDY1LjM2NTMzMyAzMi4yNTYgODEuMDY2NjY3IDgxLjA2NjY2NyAwIDAgMCA1OC4xOTczMzQtMjQuMDY0IDEwNC43ODkzMzMgMTA0Ljc4OTMzMyAwIDAgMCA3LjE2OC04LjAyMTMzNCA4Mi4wOTA2NjcgODIuMDkwNjY3IDAgMCAwIDY1LjE5NDY2NiAzMi4wODUzMzRoMS41MzZ6IG0tMS41MzYtMzA5Ljc2YTQ4LjI5ODY2NyA0OC4yOTg2NjcgMCAwIDEtNDguMTI4LTQ4LjI5ODY2NyAxNy4wNjY2NjcgMTcuMDY2NjY3IDAgMCAwLTM0LjEzMzMzMyAwIDQ4LjEyOCA0OC4xMjggMCAwIDEtMTQuMzM2IDM0LjEzMzMzMyA0Ny4xMDQgNDcuMTA0IDAgMCAxLTM0LjEzMzMzMyAxMy45OTQ2NjcgNDguMjk4NjY3IDQ4LjI5ODY2NyAwIDAgMS00OC4yOTg2NjctNDguMjk4NjY3IDE3LjA2NjY2NyAxNy4wNjY2NjcgMCAwIDAtMzQuMTMzMzMzIDAgNDguMjk4NjY3IDQ4LjI5ODY2NyAwIDAgMS00OC4xMjggNDguMjk4NjY3QTQ4LjI5ODY2NyA0OC4yOTg2NjcgMCAwIDEgNTI5LjA2NjY2NyA1MjQuMjg4YTE3LjA2NjY2NyAxNy4wNjY2NjcgMCAwIDAtMzQuMTMzMzM0IDAgNDguMjk4NjY3IDQ4LjI5ODY2NyAwIDEgMS05Ni40MjY2NjYgMCAxNy4wNjY2NjcgMTcuMDY2NjY3IDAgMCAwLTM0LjEzMzMzNCAwIDQ4LjI5ODY2NyA0OC4yOTg2NjcgMCAxIDEtOTYuNTk3MzMzIDAgMTcuMDY2NjY3IDE3LjA2NjY2NyAwIDAgMC0zNC4xMzMzMzMgMEE0OC4xMjggNDguMTI4IDAgMCAxIDE4Ny43MzMzMzMgNTcyLjU4NjY2N2E0Ny4xMDQgNDcuMTA0IDAgMCAxLTM0LjEzMzMzMy0xMy4zMTIgNTIuNTY1MzMzIDUyLjU2NTMzMyAwIDAgMS0xNi4yMTMzMzMtMzUuODRsNTEuMi0xODUuMDAyNjY3aDc4LjUwNjY2NmwtMjAuMzA5MzMzIDExMC43NjI2NjdhMTcuMDY2NjY3IDE3LjA2NjY2NyAwIDAgMCAxMy42NTMzMzMgMTkuNzk3MzMzaDMuMDcyYTE3LjA2NjY2NyAxNy4wNjY2NjcgMCAwIDAgMTcuMDY2NjY3LTEzLjk5NDY2N2wyMS41MDQtMTE2LjkwNjY2Nmg3OS4xODkzMzNsLTEwLjQxMDY2NiAxMTIuMTI4YTE3LjA2NjY2NyAxNy4wNjY2NjcgMCAwIDAgMTUuNTMwNjY2IDE4LjYwMjY2NmgxLjUzNmExNy4wNjY2NjcgMTcuMDY2NjY3IDAgMCAwIDE3LjA2NjY2Ny0xNS41MzA2NjZsMTAuNTgxMzMzLTExNS4zNzA2NjdINDk0LjkzMzMzM3YxMTQuMzQ2NjY3YTE3LjA2NjY2NyAxNy4wNjY2NjcgMCAwIDAgMzQuMTMzMzM0IDB2LTExMy44MzQ2NjdoNzkuMTg5MzMzbDEwLjU4MTMzMyAxMTUuMzcwNjY3YTE3LjA2NjY2NyAxNy4wNjY2NjcgMCAwIDAgMTcuMDY2NjY3IDE1LjUzMDY2NmgxLjUzNmExNy4wNjY2NjcgMTcuMDY2NjY3IDAgMCAwIDE1LjUzMDY2Ny0xOC42MDI2NjZsLTEwLjQxMDY2Ny0xMTIuMTI4aDc5LjE4OTMzM2wyMS41MDQgMTE2LjkwNjY2NmExNy4wNjY2NjcgMTcuMDY2NjY3IDAgMCAwIDE3LjA2NjY2NyAxMy45OTQ2NjdoMy4wNzJhMTcuMDY2NjY3IDE3LjA2NjY2NyAwIDAgMCAxMy42NTMzMzMtMTkuNzk3MzMzbC0yMC4zMDkzMzMtMTEwLjc2MjY2N2g3OC41MDY2NjdsNTEuMiAxODcuNzMzMzMzYTQ3Ljk1NzMzMyA0Ny45NTczMzMgMCAwIDEtMTQuMTY1MzM0IDMyLjA4NTMzNCA0Ny4xMDQgNDcuMTA0IDAgMCAxLTMzLjc5MiAxMy44MjR6Ii8+PC9zdmc+;" parent="1" vertex="1">
          <mxGeometry x="76" y="622" width="97" height="97" as="geometry" />
        </mxCell>
        <mxCell id="elx-VDDj_Fb_tuFXCiSr-7" value="" style="endArrow=classic;html=1;rounded=0;exitX=1;exitY=0.5;exitDx=0;exitDy=0;strokeWidth=2;strokeColor=#4A919B;" parent="1" source="elx-VDDj_Fb_tuFXCiSr-5" target="elx-VDDj_Fb_tuFXCiSr-3" edge="1">
          <mxGeometry width="50" height="50" relative="1" as="geometry">
            <mxPoint x="298" y="763" as="sourcePoint" />
            <mxPoint x="348" y="713" as="targetPoint" />
          </mxGeometry>
        </mxCell>
        <mxCell id="elx-VDDj_Fb_tuFXCiSr-8" value="" style="shape=image;verticalLabelPosition=bottom;labelBackgroundColor=default;verticalAlign=top;aspect=fixed;imageAspect=0;image=data:image/svg+xml,PHN2ZyB4bWxuczp4bGluaz0iaHR0cDovL3d3dy53My5vcmcvMTk5OS94bGluayIgeG1sbnM9Imh0dHA6Ly93d3cudzMub3JnLzIwMDAvc3ZnIiBoZWlnaHQ9IjIwMCIgd2lkdGg9IjIwMCIgdmVyc2lvbj0iMS4xIiB2aWV3Qm94PSIwIDAgMTAyNCAxMDI0IiBjbGFzcz0iaWNvbiI+PHBhdGggZmlsbD0iI0UyRTVFOCIgZD0iTTk4Ny4yMjggNTI2LjAwNGMwIDI2OS4xMTgtMjE4LjE1NyA0ODcuMjc1LTQ4Ny4yNzUgNDg3LjI3NS0yNjkuMTE4IDAtNDg3LjI3NS0yMTguMTU3LTQ4Ny4yNzUtNDg3LjI3NSAwLTI2OS4xMTggMjE4LjE1Ny00ODcuMjc1IDQ4Ny4yNzUtNDg3LjI3NSAyNjkuMTE3IDAgNDg3LjI3NSAyMTguMTU3IDQ4Ny4yNzUgNDg3LjI3NXoiLz48cGF0aCBmaWxsPSIjRTU2NzYwIiBkPSJNNjAyLjk4MSA0MzMuMzA2aDM1My42MnYyNDcuMTRoLTM1My42MnoiLz48cGF0aCBmaWxsPSIjMUQzMDVCIiBkPSJNOTU2LjYwMiA2ODUuNzA0aC0zNTMuNjJhNS4yNjIgNS4yNjIgMCAwIDEtNS4yNTgtNS4yNTl2LTI0Ny4xNGE1LjI2MiA1LjI2MiAwIDAgMSA1LjI1OC01LjI1OGgzNTMuNjJhNS4yNjMgNS4yNjMgMCAwIDEgNS4yNTkgNS4yNTh2MjQ3LjE0YTUuMjYzIDUuMjYzIDAgMCAxLTUuMjU5IDUuMjU5ek02MDguMjQgNjc1LjE4OGgzNDMuMTA0VjQzOC41NjRINjA4LjI0djIzNi42MjR6Ii8+PHBhdGggZmlsbD0iI0Q2NEI0QSIgZD0iTTk4MC4wMzggNDIxLjM4MmMwIDYuNTg0LTUuMzQgMTEuOTI0LTExLjkzNCAxMS45MjRINTkxLjQ1OWMtNi41OTQgMC0xMS45MzQtNS4zNC0xMS45MzQtMTEuOTI0VjM4Mi4xM2MwLTYuNTgzIDUuMzQtMTEuOTI0IDExLjkzNC0xMS45MjRoMzc2LjY0NmM2LjU5NCAwIDExLjkzNCA1LjM0MSAxMS45MzQgMTEuOTI0djM5LjI1MnoiLz48cGF0aCBmaWxsPSIjMUQzMDVCIiBkPSJNOTY4LjEwNCA0MzguNTY0SDU5MS40NTljLTkuNDg5IDAtMTcuMTkxLTcuNzEyLTE3LjE5MS0xNy4xODJWMzgyLjEzYzAtOS40NjkgNy43MDItMTcuMTgyIDE3LjE5MS0xNy4xODJoMzc2LjY0NmM5LjQ4OSAwIDE3LjE5MSA3LjcxMyAxNy4xOTEgMTcuMTgydjM5LjI1MmMwIDkuNDctNy43MDIgMTcuMTgyLTE3LjE5MiAxNy4xODJ6IG0tMzc2LjY0NS02My4xYy0zLjY3NyAwLTYuNjc1IDIuOTg5LTYuNjc1IDYuNjY2djM5LjI1MmMwIDMuNjc3IDIuOTk4IDYuNjY2IDYuNjc1IDYuNjY2aDM3Ni42NDZjMy42NzcgMCA2LjY3NS0yLjk4OSA2LjY3NS02LjY2NlYzODIuMTNjMC0zLjY3Ny0yLjk5OC02LjY2Ni02LjY3NS02LjY2Nkg1OTEuNDU5eiIvPjxwYXRoIGZpbGw9IiNENjRCNEEiIGQ9Ik03NjEuMzg4IDQzMy4zMDZoMzYuODA4djI0Ny4xNGgtMzYuODA4eiIvPjxwYXRoIGZpbGw9IiMxRDMwNUIiIGQ9Ik03OTguMTk1IDY4NS43MDRoLTM2LjgwOGE1LjI2MyA1LjI2MyAwIDAgMS01LjI1OS01LjI1OXYtMjQ3LjE0YTUuMjYyIDUuMjYyIDAgMCAxIDUuMjU5LTUuMjU4aDM2LjgwOGE1LjI2MyA1LjI2MyAwIDAgMSA1LjI1OSA1LjI1OHYyNDcuMTRhNS4yNjIgNS4yNjIgMCAwIDEtNS4yNTkgNS4yNTl6IG0tMzEuNTQ5LTEwLjUxNmgyNi4yOTJWNDM4LjU2NGgtMjYuMjkydjIzNi42MjR6Ii8+PHBhdGggZmlsbD0iI0U1RDk3MCIgZD0iTTg1OC4xNzMgMzE5LjQyMXMtMTAuMTg4LTI0Ljc5Mi0zOS40NzgtMTQuMjQ0Yy0yMS40NDUgNy43MjItMzguOTAzIDYyLjU2NC0zOC45MDMgNjIuNTY0bDY0LjI0OSAwLjA0MXMyOS41MzctMjEuMjQ4IDE0LjEzMi00OC4zNjF6Ii8+PHBhdGggZmlsbD0iIzFEMzA1QiIgZD0iTTg0NC4wNDEgMzczLjA0MUw3NzkuNzkyIDM3M2E1LjI1MiA1LjI1MiAwIDAgMS01LjAxMi02Ljg1YzEuODY5LTUuODc1IDE4LjkxNy01Ny41NjQgNDIuMTI4LTY1LjkyNCA1LjQwMi0xLjk0MSAxMC41OTktMi45MTcgMTUuNDg3LTIuOTE3IDIyLjEyMiAwIDMwLjI5NyAxOS4yODggMzAuNjQ2IDIwLjEwOSAxMy43NDEgMjQuMTA0LTQuMzk1IDQ2LjMyOS0xNS45MTggNTQuNjM3YTUuMzQxIDUuMzQxIDAgMCAxLTMuMDgyIDAuOTg2eiBtLTU2Ljg5NS0xMC41NThsNTUuMDg4IDAuMDQxYzUuMDk1LTQuMTY4IDIyLjY3Ny0yMC41OTEgMTEuMzU5LTQwLjUwNS0wLjUxNC0xLjEyOS02LjIyMy0xNC4xOTMtMjEuMTk3LTE0LjE5My0zLjY3NyAwLTcuNjgzIDAuNzcxLTExLjkxNCAyLjMwMS0xMi4zODYgNC40NTctMjUuOTgzIDMyLjA4My0zMy4zMzYgNTIuMzU2eiIvPjxwYXRoIGZpbGw9IiNFNUQ5NzAiIGQ9Ik03MDEuNDEgMzE5LjQyMXMxMC4xODgtMjQuNzkyIDM5LjQ3OS0xNC4yNDRjMjEuNDQzIDcuNzIyIDM4LjkwMiA2Mi41NjQgMzguOTAyIDYyLjU2NGwtNjQuMjUgMC4wNDFjMC4wMDEgMC0yOS41MzUtMjEuMjQ4LTE0LjEzMS00OC4zNjF6Ii8+PHBhdGggZmlsbD0iIzFEMzA1QiIgZD0iTTcxNS41NDIgMzczLjA0MWE1LjMzOCA1LjMzOCAwIDAgMS0zLjA4MS0wLjk4NmMtMTEuNTIyLTguMzA4LTI5LjY2LTMwLjUzMy0xNS42MzEtNTUuMjMyIDAuMDYyLTAuMjI2IDguMjM3LTE5LjUxNCAzMC4zNTgtMTkuNTE0IDQuODg4IDAgMTAuMDg2IDAuOTc2IDE1LjQ4NyAyLjkxNyAyMy4yMSA4LjM1OSA0MC4yNTkgNjAuMDQ5IDQyLjEyOCA2NS45MjRhNS4yNSA1LjI1IDAgMCAxLTUuMDEyIDYuODVsLTY0LjI0OSAwLjA0MXogbTExLjY0Ni02NS4yMTVjLTE1LjE1OSAwLTIwLjg0OSAxMy40NTUtMjAuOTEgMTMuNTk4LTExLjU4NCAyMC40MzggNS45NzggMzYuOTMyIDExLjA3MSA0MS4xbDU1LjA2OC0wLjA0MWMtNi4zMjctMTcuMzY2LTE5Ljc4LTQ3LjQ4OS0zMy4zMTYtNTIuMzU2LTQuMjMxLTEuNTMtOC4yMzctMi4zMDEtMTEuOTEzLTIuMzAxeiIvPjxwYXRoIGZpbGw9IiNENjRCNEEiIGQ9Ik02ODcuNzcxIDQ3OS41OTRjMCA5LjMzNS0xMC41OTggMTYuOTE0LTIzLjY2MiAxNi45MTQtMTMuMDYzIDAtMjMuNjYyLTcuNTc5LTIzLjY2Mi0xNi45MTQgMC05LjM0NyAxMC41OTktMTYuOTI1IDIzLjY2Mi0xNi45MjUgMTMuMDY1LTAuMDAxIDIzLjY2MiA3LjU3OCAyMy42NjIgMTYuOTI1ek04NjguNTI1IDQ5OS4wMjRjMCA5LjMzNS0xMC41OTkgMTYuOTE1LTIzLjY2MiAxNi45MTVzLTIzLjY2My03LjU4LTIzLjY2My0xNi45MTVjMC05LjM0NSAxMC42LTE2LjkyNSAyMy42NjMtMTYuOTI1czIzLjY2MiA3LjU4IDIzLjY2MiAxNi45MjV6TTg3My44NjYgNTkxLjE2OGMwIDYuODkxLTcuODI1IDEyLjQ3OC0xNy40NiAxMi40NzgtOS42MzMgMC0xNy40NTktNS41ODctMTcuNDU5LTEyLjQ3OCAwLTYuODkyIDcuODI2LTEyLjQ3OSAxNy40NTktMTIuNDc5IDkuNjM1IDAgMTcuNDYgNS41ODcgMTcuNDYgMTIuNDc5ek05NDIuMjI1IDY1My4wNDVjMCA5Ljc0Ni0xMS4wNTEgMTcuNjQ0LTI0LjY5IDE3LjY0NC0xMy42MzggMC0yNC42ODktNy44OTctMjQuNjg5LTE3LjY0NHMxMS4wNTItMTcuNjU0IDI0LjY4OS0xNy42NTRjMTMuNjM5IDAgMjQuNjkgNy45MDggMjQuNjkgMTcuNjU0ek03NDYuNTU4IDYyMS44NjVjMCA3LjQ2Ni04LjQ2MyAxMy41MjUtMTguOTM4IDEzLjUyNS0xMC40MzUgMC0xOC44OTctNi4wNi0xOC44OTctMTMuNTI1IDAtNy40NzggOC40NjMtMTMuNTM2IDE4Ljg5Ny0xMy41MzYgMTAuNDc1IDAgMTguOTM4IDYuMDU5IDE4LjkzOCAxMy41MzZ6TTY3OC4yODEgNTY3Ljg3NWMwIDguODYzLTEwLjA0MyAxNi4wNjMtMjIuNDcgMTYuMDYzLTEyLjQwNyAwLTIyLjQ1LTcuMTk5LTIyLjQ1LTE2LjA2MyAwLTguODczIDEwLjA0My0xNi4wNzIgMjIuNDUtMTYuMDcyIDEyLjQyNyAwIDIyLjQ3IDcuMTk5IDIyLjQ3IDE2LjA3MnpNNjU1LjgxMiA2NTMuMDQ1YzAgOC44NjMtMTAuMDQ1IDE2LjA2My0yMi40NzIgMTYuMDYzLTEyLjQwNSAwLTIyLjQ1LTcuMTk5LTIyLjQ1LTE2LjA2MyAwLTguODc0IDEwLjA0NS0xNi4wNzMgMjIuNDUtMTYuMDczIDEyLjQyNyAwIDIyLjQ3MiA3LjE5OSAyMi40NzIgMTYuMDczeiIvPjxwYXRoIGZpbGw9IiNGMkI4MzciIGQ9Ik0yODkuOTI5IDQxNC4wMjloMTU4Ljg3OFY2MTIuNTNIMjg5LjkyOXoiLz48cGF0aCBmaWxsPSIjMUQzMDVCIiBkPSJNNDQ4LjgwNyA2MTcuNzg4SDI4OS45MjlhNS4yNjIgNS4yNjIgMCAwIDEtNS4yNTgtNS4yNThWNDE0LjAyOWE1LjI2MSA1LjI2MSAwIDAgMSA1LjI1OC01LjI1OGgxNTguODc4YTUuMjYxIDUuMjYxIDAgMCAxIDUuMjU4IDUuMjU4VjYxMi41M2E1LjI2MiA1LjI2MiAwIDAgMS01LjI1OCA1LjI1OHogbS0xNTMuNjItMTAuNTE3aDE0OC4zNjJWNDE5LjI4OEgyOTUuMTg3djE4Ny45ODN6Ii8+PHBhdGggZmlsbD0iI0YyQjgzNyIgZD0iTTUzNC4xMzEgMjkyLjMwOGMxMC4wNjQgNC4zNTQgMTIuNjkzIDIwLjY2NCA1Ljg3NSAzNi40MzgtNi44NCAxNS43NzUtMjAuNTIgMjUuMDM5LTMwLjU4NSAyMC42NzMtMTAuMDY0LTQuMzU1LTEyLjcxMy0yMC42NzMtNS44NzQtMzYuNDQ4IDYuODQtMTUuNzY0IDIwLjUxOS0yNS4wMDcgMzAuNTg0LTIwLjY2M3oiLz48cGF0aCBmaWxsPSIjMUQzMDVCIiBkPSJNNTE0Ljc0MSAzNTUuNzU3Yy0yLjYwOCAwLTUuMDk0LTAuNTA0LTcuNDE1LTEuNTEtNi41NzMtMi44NDUtMTAuOTY5LTkuMjEzLTEyLjM2Ni0xNy45MzItMS4yNzItNy44NjcgMC4wNjItMTYuOTA0IDMuNzYtMjUuNDM5IDcuOTI4LTE4LjIyOSAyNC45MzYtMjguODA4IDM3LjQ4NS0yMy4zOTUgMTIuOTQgNS41ODcgMTYuNzIgMjQuNjM4IDguNjI4IDQzLjM1LTYuNDcxIDE0LjkxMi0xOC41NjggMjQuOTI2LTMwLjA5MiAyNC45MjZ6IG0xNC4wOTEtNTkuMjU5Yy02LjE2MiAwLTE1LjE4IDYuMzc5LTIwLjQ1OSAxOC41NjgtMi44NzUgNi42MTUtMy45ODQgMTMuNzUyLTMuMDM5IDE5LjU3NSAwLjQ3MiAyLjkyNyAxLjkxIDguMTA0IDYuMTgyIDkuOTUyIDYuMzA2IDIuNzIyIDE3LjM5OC0zLjQ1MSAyMy42NjMtMTcuOTQxIDUuNDYzLTEyLjYzMiA0LjAwNS0yNi40MzUtMy4xNDQtMjkuNTE3YTguMDY4IDguMDY4IDAgMCAwLTMuMjAzLTAuNjM3eiIvPjxwYXRoIGZpbGw9IiNGMkI4MzciIGQ9Ik0yMDguODE1IDI5Mi4zMDhjLTEwLjA2NSA0LjM1NC0xMi42OTQgMjAuNjY0LTUuODc0IDM2LjQzOCA2LjgxOCAxNS43NzUgMjAuNDk5IDI1LjAzOSAzMC41NjMgMjAuNjczIDEwLjA2NC00LjM1NSAxMi43MTQtMjAuNjczIDUuODc1LTM2LjQ0OC02LjgxOS0xNS43NjQtMjAuNDk5LTI1LjAwNy0zMC41NjQtMjAuNjYzeiIvPjxwYXRoIGZpbGw9IiMxRDMwNUIiIGQ9Ik0yMjguMTg1IDM1NS43NTdjLTExLjU0NCAwLTIzLjYyMi0xMC4wMTQtMzAuMDcxLTI0LjkyNi04LjA5My0xOC43MTItNC4zMTQtMzcuNzYzIDguNjA2LTQzLjM1IDEyLjcxNC01LjQ0NCAyOS41OTggNS4xNjYgMzcuNDg2IDIzLjQwNSAzLjY5NyA4LjUyNSA1LjAzMiAxNy41NjMgMy43NTkgMjUuNDI5LTEuMzk3IDguNzE5LTUuNzkyIDE1LjA4Ni0xMi4zNjUgMTcuOTMyLTIuMzIxIDEuMDA2LTQuODA3IDEuNTEtNy40MTUgMS41MXogbS0xNC4wNy01OS4yNTlhOC4yNiA4LjI2IDAgMCAwLTMuMjI2IDAuNjM3Yy03LjEyNyAzLjA4Mi04LjU4NSAxNi44ODUtMy4xMjIgMjkuNTI2IDYuMjY1IDE0LjQ4MSAxNy4zOTggMjAuNjU0IDIzLjY0MiAxNy45MzIgNC4yNzItMS44NDggNS43MS03LjAyNSA2LjE4My05Ljk1MiAwLjk0NS01LjgyMy0wLjE2NS0xMi45Ni0zLjA0LTE5LjU3NS01LjI3OS0xMi4xOS0xNC4yNzYtMTguNTY4LTIwLjQzNy0xOC41Njh6Ii8+PHBhdGggZmlsbD0iI0U1RDk3MCIgZD0iTTUxNC43NDEgMjk5Ljk0OGMwIDk4LjMyNi03Ny45OTEgMTk5LjA2Ni0xNDMuNjk5IDE5OS4wNjYtNjQuODY2IDAtMTQzLjc0LTEwMC43NC0xNDMuNzQtMTk5LjA2NiAwLTk4LjMyNSA2NC4zMzItMTc4LjAyMSAxNDMuNzQtMTc4LjAyMSA3OS4zNjggMCAxNDMuNjk5IDc5LjY5NyAxNDMuNjk5IDE3OC4wMjF6Ii8+PHBhdGggZmlsbD0iIzFEMzA1QiIgZD0iTTM3MS4wNDIgNTA0LjI3M2MtNzEuMDI4IDAtMTQ4Ljk5OS0xMDYuOTMzLTE0OC45OTktMjA0LjMyNSAwLTEwMS4wNTggNjYuODM4LTE4My4yNzkgMTQ4Ljk5OS0xODMuMjc5IDgyLjE0IDAgMTQ4Ljk1NyA4Mi4yMjIgMTQ4Ljk1NyAxODMuMjc5IDAgOTcuMzkyLTc3Ljk1IDIwNC4zMjUtMTQ4Ljk1NyAyMDQuMzI1eiBtMC0zNzcuMDg3Yy03Ni4zNjkgMC0xMzguNDgyIDc3LjQ5OC0xMzguNDgyIDE3Mi43NjMgMCA5Ny45ODcgNzkuMzA1IDE5My44MDggMTM4LjQ4MiAxOTMuODA4IDYwLjQ1IDAgMTM4LjQ0LTkzLjk4MiAxMzguNDQtMTkzLjgwOCAwLTk1LjI2NS02Mi4xMTMtMTcyLjc2My0xMzguNDQtMTcyLjc2M3oiLz48cGF0aCBmaWxsPSIjRTU2NzYwIiBkPSJNNDAyLjU5MiAzMS42MzJjMCAxMC45NjktMTMuOTI2IDE5Ljg1My0zMS4xMTggMTkuODUzcy0zMS4xMTktOC44ODQtMzEuMTE5LTE5Ljg1MyAxMy45MjYtMTkuODYyIDMxLjExOS0xOS44NjJjMTcuMTkyIDAgMzEuMTE4IDguODkzIDMxLjExOCAxOS44NjJ6Ii8+PHBhdGggZmlsbD0iIzFEMzA1QiIgZD0iTTM3MS40NzQgNTYuNzQyYy0yMC4zOTcgMC0zNi4zNzctMTEuMDMtMzYuMzc3LTI1LjExIDAtMTQuMDkxIDE1Ljk4LTI1LjEyMSAzNi4zNzctMjUuMTIxIDIwLjM5NiAwIDM2LjM3NiAxMS4wMyAzNi4zNzYgMjUuMTIxIDAgMTQuMDgtMTUuOTggMjUuMTEtMzYuMzc2IDI1LjExeiBtMC0zOS43MTRjLTEzLjc4MiAwLTI1Ljg2IDYuODE5LTI1Ljg2IDE0LjYwNCAwIDcuNzc1IDEyLjA3OCAxNC41OTQgMjUuODYgMTQuNTk0czI1Ljg2LTYuODE4IDI1Ljg2LTE0LjU5NGMtMC4wMDEtNy43ODUtMTIuMDc5LTE0LjYwNC0yNS44Ni0xNC42MDR6Ii8+PHBhdGggZmlsbD0iI0U1Njc2MCIgZD0iTTM3MS45MDUgMjExLjAwOWMtNzguMTE1IDAtMTM3LjAwMyAxNy40MDgtMTY1LjYzNiAyNy45ODdWMzAwLjRzMTIuMjgzIDQ3LjMyNSA1Ni4wOTUgMzEuNTUgMTA4LjY3OC0yMC4xNSAxMDguNjc4LTIwLjE1IDY0Ljg0NiA0LjM3NSAxMDguNjU4IDIwLjE1IDU2LjA5NS0zMS41NSA1Ni4wOTUtMzEuNTV2LTU3LjQ4MWMtMjguMjYzLTEyLjE1LTg2LjE2Ni0zMS45MS0xNjMuODktMzEuOTF6Ii8+PHBhdGggZmlsbD0iIzFEMzA1QiIgZD0iTTQ5Ni42MDQgMzQwLjQyM2MtNS44OTUgMC0xMi4xNzktMS4xODEtMTguNjktMy41MjItNDIuNjIxLTE1LjM1NC0xMDYuNTg0LTE5LjgxMi0xMDcuMjIxLTE5Ljg1MiAwLjA2MiAwLjA0MS02My45NDEgNC41MDgtMTA2LjU0MiAxOS44NTItNi41MTEgMi4zNDEtMTIuNzk2IDMuNTIyLTE4LjY5MSAzLjUyMi0yNy4wNzEgMC00MC44MTMtMjUuMzE1LTQ0LjI4NS0zOC42OTlhNS43NDggNS43NDggMCAwIDEtMC4xNjQtMS4zMjR2LTYxLjQwNGE1LjI2NSA1LjI2NSAwIDAgMSAzLjQzLTQuOTNjMjguNjMzLTEwLjU3OCA4OC40NDYtMjguMzE1IDE2Ny40NjQtMjguMzE1IDc4Ljk1NiAwIDEzNy44NjYgMjAuMjY0IDE2NS45NjQgMzIuMzQxYTUuMjQgNS4yNCAwIDAgMSAzLjE4NSA0LjgyN1YzMDAuNGMwIDAuNDQyLTAuMDYzIDAuODk0LTAuMTY1IDEuMzI0LTMuNDcyIDEzLjM4NC0xNy4yMTMgMzguNjk5LTQ0LjI4NSAzOC42OTl6IG0tMTI1LjkxMi0zMy44NzFjMy4zODkgMC4xODYgNjYuNzk3IDQuNjEyIDExMC43OTQgMjAuNDQ5IDUuMzYyIDEuOTMgMTAuNDM1IDIuOTA2IDE1LjExNyAyLjkwNiAyMy45NzIgMCAzMi42MTktMjUuNzg5IDMzLjkzNC0zMC4yMzVWMjQ2LjRjLTI4LjQ2OS0xMS44NTItODQuNDQtMzAuMTMzLTE1OC42MzItMzAuMTMzLTc0LjM1NSAwLTEzMS4yMzEgMTUuOTkxLTE2MC4zNzggMjYuNDE1djU2Ljk4OWMxLjMxNCA0LjQ0NyA5Ljk2MiAzMC4yMzUgMzMuOTMyIDMwLjIzNSA0LjY4NCAwIDkuNzU3LTAuOTc2IDE1LjExOC0yLjkwNiA0My45OTctMTUuODM2IDEwNy40MjQtMjAuMjYzIDExMC4xMTUtMjAuNDQ4eiIvPjxwYXRoIGZpbGw9IiNFNTY3NjAiIGQ9Ik01MzUuNzk1IDI0Mi45MTl2LTkyLjM4QzQ3OC44MzcgMjAuODI4IDM3MS4wNDIgMzYuNjE0IDM3MS4wNDIgMzYuNjE0UzI2My4yMjYgMjAuODI4IDIwNi4yNjkgMTUwLjUzOXY4OC40NTdjMjguNjMzLTEwLjU3OSA4Ny41MjEtMjcuOTg3IDE2NS42MzYtMjcuOTg3IDc3LjcyNCAwIDEzNS42MjcgMTkuNzYgMTYzLjg5IDMxLjkxeiIvPjxwYXRoIGZpbGw9IiMxRDMwNUIiIGQ9Ik01MzUuNzk1IDI0OC4xNzdhNS4yMjQgNS4yMjQgMCAwIDEtMi4wNzQtMC40MzFjLTI3LjM2LTExLjc1LTg0Ljc0OS0zMS40NzktMTYxLjgxNi0zMS40NzktNzcuMzk2IDAtMTM1Ljg1NCAxNy4zMjYtMTYzLjgwOSAyNy42NThhNS4xNDggNS4xNDggMCAwIDEtNC44MjYtMC42MTcgNS4yNTYgNS4yNTYgMCAwIDEtMi4yNi00LjMxM3YtODguNDU3YzAtMC43MjkgMC4xNDQtMS40NDggMC40NTItMi4xMTVDMjQ4LjA4OCA0Mi4yMiAzMjcuNzQzIDMwLjc0OSAzNTkuODQ3IDMwLjc0OWM1LjcxIDAgOS42MzMgMC4zODEgMTEuMTk1IDAuNTY1IDEuNTYxLTAuMTg0IDUuNDg1LTAuNTY1IDExLjE5NC0wLjU2NSAzMi4wODUgMCAxMTEuNzM5IDExLjQ3MiAxNTguMzY2IDExNy42NzUgMC4zMDggMC42NjcgMC40NTIgMS4zODYgMC40NTIgMi4xMTV2OTIuMzhjMCAxLjc2Ny0wLjg4NCAzLjQyLTIuMzYyIDQuMzk2YTUuMzk3IDUuMzk3IDAgMCAxLTIuODk3IDAuODYyeiBtLTE2My44OS00Mi40MjZjNzIuNjMgMCAxMjguMzE0IDE3LjE0MiAxNTguNjMyIDI5LjI5di04My4zOTNjLTQ0LjIwMy05OS42LTExOC4zNzQtMTEwLjM4My0xNDguMzAxLTExMC4zODMtNi40MjggMC0xMC4yNSAwLjUyNC0xMC40MzQgMC41NTVhNi4yMzQgNi4yMzQgMCAwIDEtMS41MiAwYy0wLjE4NS0wLjAzMS00LjAwNS0wLjU1NS0xMC40MzUtMC41NTUtMjkuOTI3IDAtMTA0LjExOCAxMC43ODQtMTQ4LjMyIDExMC4zODN2NzkuODgxYzMwLjc2OS0xMC42MzkgODcuMzc4LTI1Ljc3OCAxNjAuMzc4LTI1Ljc3OHoiLz48cGF0aCBmaWxsPSIjRTU2NzYwIiBkPSJNNDM3LjE4MSAyMTUuODI3YzAuMjY3LTUuOTY3IDAuNDUyLTEyLjAxNyAwLjQ1Mi0xOC4xNjggMC04OS4yNzktMjkuODI1LTE2MS42NTItNjYuNjEyLTE2MS42NTItMzYuNzg3IDAtNjYuNTkxIDcyLjM3My02Ni41OTEgMTYxLjY1MiAwIDYuMDA4IDAuMTY1IDExLjkyNCAwLjQzMSAxNy43NjggMjAuMjk0LTIuNjYgNDIuNjgzLTQuNDE3IDY3LjA0My00LjQxNyAyMy43NDQtMC4wMDEgNDUuNDk3IDEuOTA5IDY1LjI3NyA0LjgxN3oiLz48cGF0aCBmaWxsPSIjMUQzMDVCIiBkPSJNNDM3LjE4MSAyMjEuMDg1Yy0wLjI0NiAwLTAuNTEzLTAuMDIxLTAuNzYtMC4wNTItNDMuOTE1LTYuNDQ5LTg2Ljg4NS02LjE2Mi0xMzAuODgyLTAuMzkxLTEuNDM4IDAuMjA3LTIuOTE3LTAuMjQ2LTQuMDQ2LTEuMTkxcy0xLjgwNy0yLjMxMS0xLjg5LTMuNzlhMzk4Ljc4NyAzOTguNzg3IDAgMCAxLTAuNDMxLTE4LjAwM2MwLTkzLjU5MiAzMS41Ny0xNjYuOTEgNzEuODUtMTY2LjkxIDQwLjI5OSAwIDcxLjg3IDczLjMxOCA3MS44NyAxNjYuOTEgMCA2LjIzNC0wLjE4NiAxMi4zNTUtMC40NTIgMTguNDA0YTUuMjI2IDUuMjI2IDAgMCAxLTEuOTEgMy44MiA1LjI2NiA1LjI2NiAwIDAgMS0zLjM0OSAxLjIwM3ogbS02NS4yNzYtMTUuMzM0YzIwLjIxMSAwIDM5Ljk3MSAxLjMyNSA2MC4yNDQgNC4wNTggMC4xNDUtNC4wMDUgMC4yMjYtOC4wNTIgMC4yMjYtMTIuMTUgMC04NC43NjktMjguMDk5LTE1Ni4zOTQtNjEuMzU0LTE1Ni4zOTQtMzMuMjU1IDAtNjEuMzMzIDcxLjYyNS02MS4zMzMgMTU2LjM5NCAwIDMuOTg0IDAuMDgyIDcuOTI4IDAuMjA1IDExLjg0MSAyMC43MDUtMi40ODUgNDEuNTMzLTMuNzQ5IDYyLjAxMi0zLjc0OXoiLz48cGF0aCBmaWxsPSIjRkZGRkZGIiBkPSJNMzcxLjAyMSA1OTAuNzE2bC04MS41MDMtOTQuMjA4LTgwLjY2MSAyOS40OTYgMTEyLjY0MiAxMTQuMjI0eiIvPjxwYXRoIGZpbGw9IiMxRDMwNUIiIGQ9Ik0zMjEuNDc5IDY0Ny42OTRMMTk5LjM2NyA1MjMuODc4bDkxLjc1My0zMy41NTMgODcuMDY5IDEwMC42NDctNTYuNzEgNTYuNzIyek0yMTguMzQ2IDUyOC4xMzFMMzIxLjUyIDYzMi43NjJsNDIuMzMzLTQyLjMwMy03NS45MzctODcuNzY4LTY5LjU3IDI1LjQ0eiIvPjxwYXRoIGZpbGw9IiNERURFRDIiIGQ9Ik02Ny43ODYgNjI5LjI3OVY4MDEuOTNzLTIuMjc5IDYwLjk0MiA1Ni4xMTYgNjQuNTE3VjU1Ni40OTZjLTI1Ljk2MiAxMi4zNTYtNTYuMTE2IDM0LjgzNi01Ni4xMTYgNzIuNzgzeiIvPjxwYXRoIGZpbGw9IiMxRDMwNUIiIGQ9Ik0xMjkuMTYxIDg3Mi4wMzRsLTUuNTg3LTAuMzM4Yy02Mi43OTItMy44NDItNjEuMDY2LTY5LjMwNC02MS4wNDYtNjkuOTYxVjYyOS4yNzljMC00MC44MzMgMzIuMTQ2LTY0LjcgNTkuMTE1LTc3LjUyOGw3LjUxOC0zLjU4NXYzMjMuODY4eiBtLTEwLjUxNi0zMDYuOTYyYy0yMi4zMDcgMTIuMTU5LTQ1LjYgMzIuNDc0LTQ1LjYgNjQuMjA3VjgwMS45M2MtMC4wODIgMi4zNzItMS4yMTEgNTIuMTgzIDQ1LjYgNTguNzE0VjU2NS4wNzJ6Ii8+PHBhdGggZmlsbD0iI0RFREVEMiIgZD0iTTMyMS40OTkgNjQwLjIyOEwyMDguODU3IDUyNi4wMDRsLTQ4LjE2NyAxNy42MDNzLTIuNzMxIDAuNTg1LTcuMDA0IDEuNzY3djMyMS40MTNoMjE3LjMzNnYtMjc2LjA3bC00OS41MjMgNDkuNTExeiIvPjxwYXRoIGZpbGw9IiMxRDMwNUIiIGQ9Ik0zNzYuMjc5IDg3Mi4wNDRIMTQ4LjQyN1Y1NDEuMzY3bDMuODYyLTEuMDU4YzQuNDU3LTEuMjMxIDcuMjkyLTEuODQ4IDcuMjkyLTEuODQ4bDUwLjY1Mi0xOC41NTkgMTExLjI4NyAxMTIuODYgNTQuNzYtNTQuNzM5djI5NC4wMjF6IG0tMjE3LjMzNS0xMC41MTdoMjA2LjgxOVY2MDMuNDA5bC00NC4yODQgNDQuMjg1LTExMy45OTktMTE1LjU5LTQ0Ljk4MyAxNi40NDNjLTAuNDkzIDAuMTM0LTEuNzA1IDAuNDEtMy41NTMgMC44NzJ2MzEyLjEwOHoiLz48cGF0aCBmaWxsPSIjQjlCQUIxIiBkPSJNMTIzLjkwMiA1NTYuNDk2djMwOS45NTFsMjkuNzg0IDAuMzM5VjU0NS4zNzN6Ii8+PHBhdGggZmlsbD0iIzFEMzA1QiIgZD0iTTE1OC45NDQgODcyLjEwNmwtNDAuMjk5LTAuNDYyVjU1Mi44NTFsNDAuMjk5LTE1LjA1NnYzMzQuMzExeiBtLTI5Ljc4My0xMC44NTVsMTkuMjY3IDAuMjE1VjU1Mi45NTNsLTE5LjI2NyA3LjE4OXYzMDEuMTA5eiIvPjxwYXRoIGZpbGw9IiNCOUJBQjEiIGQ9Ik0xMjMuOTAyIDU1Ni40OTZsMjkuNzgzLTExLjEyM2MtNi43OTggMS44OTEtMTcuNzY3IDUuNDAyLTI5Ljc4MyAxMS4xMjN6Ii8+PHBhdGggZmlsbD0iIzFEMzA1QiIgZD0iTTEyNS43NTEgNTYxLjQyNmwtNC4xMDgtOS42NzVjMTIuMi01LjgxMyAyMy4zOTUtOS40MjkgMzAuNjI1LTExLjQ0MWwzLjI2NSA5Ljk5My0yOS43ODIgMTEuMTIzeiIvPjxwYXRoIGZpbGw9IiNCOUJBQjEiIGQ9Ik0xMjkuMTQgODY2Ljc4NmgyNC41NDZsLTI5Ljc4My0wLjMzOWMxLjc0NSAwLjEwMyAzLjM2OCAwLjMzOSA1LjIzNyAwLjMzOXoiLz48cGF0aCBmaWxsPSIjMUQzMDVCIiBkPSJNMTUzLjY4NiA4NzIuMDQ0SDEyOS4xNGMtMS4zNTUgMC0yLjYwOC0wLjEwMy0zLjg2MS0wLjIxNWwtMS42ODQtMC4xMzMgMC4zNy0xMC41MDcgMjkuNzg0IDAuMzM4LTAuMDYzIDEwLjUxN3oiLz48cGF0aCBmaWxsPSIjRkZGRkZGIiBkPSJNNTMzLjE4NyA1MjYuMDA0bC04MC42NjItMjkuNDk2LTgxLjUwNCA5NC4yMDggNDkuNTIzIDQ5LjUxMnoiLz48cGF0aCBmaWxsPSIjMUQzMDVCIiBkPSJNNDIwLjU2NSA2NDcuNjk0bC01Ni43MTItNTYuNzIyIDg3LjA2OS0xMDAuNjQ3IDkxLjc1MyAzMy41NTMtMTIyLjExIDEyMy44MTZ6IG0tNDIuMzc2LTU3LjIzNWw0Mi4zMzMgNDIuMzAzIDEwMy4xNzQtMTA0LjYzMS02OS41Ny0yNS40MzktNzUuOTM3IDg3Ljc2N3oiLz48cGF0aCBmaWxsPSIjREVERUQyIiBkPSJNNjc0LjI1NiA4MDEuOTMxVjYyOS4yOGMwLTM3Ljk0Ny0zMC4xNTMtNjAuNDI4LTU2LjExNi03Mi43ODN2MzA5Ljk1MWM1OC4zOTYtMy41NzUgNTYuMTE2LTY0LjUxNyA1Ni4xMTYtNjQuNTE3eiIvPjxwYXRoIGZpbGw9IiMxRDMwNUIiIGQ9Ik02MTIuODgyIDg3Mi4wMzRWNTQ4LjE2Nmw3LjUxOCAzLjU4NWMyNi45NyAxMi44MjggNTkuMTE1IDM2LjY5NSA1OS4xMTUgNzcuNTI4VjgwMS45M2MwLjAyMSAwLjQ2MiAxLjc0NiA2NS45MjQtNjEuMDQ2IDY5Ljc2NmwtNS41ODcgMC4zMzh6IG0xMC41MTYtMzA2Ljk2MnYyOTUuNTcyYzQ2Ljk3Ni02LjUzMSA0NS42ODItNTYuMzIgNDUuNi01OC41MTlWNjI5LjI3OWMwLTMxLjczMy0yMy4yOTMtNTIuMDQ4LTQ1LjYtNjQuMjA3eiIvPjxwYXRoIGZpbGw9IiNERURFRDIiIGQ9Ik01ODEuMzUzIDU0My42MDZsLTQ4LjE2Ni0xNy42MDMtMTEyLjY0MyAxMTQuMjI1LTQ5LjUyMi00OS41MTJ2Mjc2LjA3aDIxNy4zMzZWNTQ1LjM3M2MtNC4yNzMtMS4xODItNy4wMDUtMS43NjctNy4wMDUtMS43Njd6Ii8+PHBhdGggZmlsbD0iIzFEMzA1QiIgZD0iTTU5My42MTUgODcyLjA0NEgzNjUuNzYzVjU3OC4wMjJsNTQuNzYgNTQuNzM5IDExMS4yODgtMTEyLjg1OCA1MS4yNDcgMTguNzIzYzAuMTQ0IDAgMi44MTQgMC42MDUgNi42OTYgMS42ODRsMy44NjEgMS4wNTh2MzMwLjY3NnogbS0yMTcuMzM2LTEwLjUxN2gyMDYuODE5VjU0OS40MTlhNzQuNjU4IDc0LjY1OCAwIDAgMC0yLjg1NS0wLjY2N2wtNDUuNjgxLTE2LjY0OC0xMTMuOTk3IDExNS41OS00NC4yODYtNDQuMjg1djI1OC4xMTh6Ii8+PHBhdGggZmlsbD0iI0I5QkFCMSIgZD0iTTU4OC4zNTcgNTQ1LjM3M3YzMjEuNDEzbDI5Ljc4My0wLjMzOVY1NTYuNDk2eiIvPjxwYXRoIGZpbGw9IiMxRDMwNUIiIGQ9Ik01ODMuMDk5IDg3Mi4xMDZWNTM3Ljc5NWw0MC4zIDE1LjA1NnYzMTguNzk0bC00MC4zIDAuNDYxeiBtMTAuNTE2LTMxOS4xNTN2MzA4LjUxM2wxOS4yNjctMC4yMTVWNTYwLjE0M2wtMTkuMjY3LTcuMTl6Ii8+PHBhdGggZmlsbD0iI0I5QkFCMSIgZD0iTTU4OC4zNTcgNTQ1LjM3M2wyOS43ODIgMTEuMTIzYy0xMi4wMTQtNS43MjEtMjIuOTgzLTkuMjMyLTI5Ljc4Mi0xMS4xMjN6Ii8+PHBhdGggZmlsbD0iIzFEMzA1QiIgZD0iTTYxNi4yOTIgNTYxLjQyNmwtMjkuNzgzLTExLjEyMyAzLjI2Ni05Ljk5M2M3LjIyOSAyLjAxMyAxOC40MjUgNS42MjggMzAuNjI1IDExLjQ0MWwtNC4xMDggOS42NzV6Ii8+PHBhdGggZmlsbD0iI0I5QkFCMSIgZD0iTTYxMi45MDIgODY2Ljc4NmMxLjg2OSAwIDMuNDkyLTAuMjM2IDUuMjM3LTAuMzM5bC0yOS43ODIgMC4zMzloMjQuNTQ1eiIvPjxwYXRoIGZpbGw9IiMxRDMwNUIiIGQ9Ik02MTIuOTAyIDg3Mi4wNDRoLTI0LjU0NWwtMC4wNjMtMTAuNTE3IDI5Ljc4NC0wLjMzOCAwLjM3IDEwLjUwNy0xLjY4NSAwLjEzM2MtMS4yNTIgMC4xMTItMi41MDUgMC4yMTUtMy44NjEgMC4yMTV6Ii8+PC9zdmc+;" parent="1" vertex="1">
          <mxGeometry x="261.07" y="610" width="59.86" height="59.86" as="geometry" />
        </mxCell>
        <mxCell id="elx-VDDj_Fb_tuFXCiSr-9" value="&lt;font color=&quot;#4a919b&quot;&gt;发送端&lt;/font&gt;" style="text;html=1;strokeColor=none;fillColor=none;align=center;verticalAlign=middle;whiteSpace=wrap;rounded=0;" parent="1" vertex="1">
          <mxGeometry x="94.5" y="716" width="60" height="30" as="geometry" />
        </mxCell>
        <mxCell id="elx-VDDj_Fb_tuFXCiSr-10" value="&lt;font color=&quot;#4a919b&quot;&gt;接收端&lt;/font&gt;" style="text;html=1;strokeColor=none;fillColor=none;align=center;verticalAlign=middle;whiteSpace=wrap;rounded=0;" parent="1" vertex="1">
          <mxGeometry x="450.5" y="716" width="60" height="30" as="geometry" />
        </mxCell>
      </root>
    </mxGraphModel>
  </diagram>
</mxfile>
